<svg width="437" height="245" viewBox="0 0 437 245" fill="none" xmlns="http://www.w3.org/2000/svg">
<path d="M16.0703 34H9.41016V8.13281H0.880859V2.58984H24.5996V8.13281H16.0703V34ZM38.8652 14.1914C37.4759 14.1914 36.3874 14.6354 35.5996 15.5234C34.8118 16.3971 34.3607 17.6432 34.2461 19.2617H43.4414C43.4128 17.6432 42.9902 16.3971 42.1738 15.5234C41.3574 14.6354 40.2546 14.1914 38.8652 14.1914ZM39.7891 34.4297C35.9219 34.4297 32.8997 33.3626 30.7227 31.2285C28.5456 29.0944 27.457 26.0723 27.457 22.1621C27.457 18.1374 28.4596 15.0293 30.4648 12.8379C32.4844 10.6322 35.2702 9.5293 38.8223 9.5293C42.2168 9.5293 44.8594 10.4961 46.75 12.4297C48.6406 14.3633 49.5859 17.0345 49.5859 20.4434V23.623H34.0957C34.1673 25.485 34.7188 26.9388 35.75 27.9844C36.7812 29.0299 38.2279 29.5527 40.0898 29.5527C41.5365 29.5527 42.9043 29.4023 44.1934 29.1016C45.4824 28.8008 46.8288 28.321 48.2324 27.6621V32.7324C47.0866 33.3053 45.862 33.7279 44.5586 34C43.2552 34.2865 41.6654 34.4297 39.7891 34.4297ZM76.4199 34H69.8672V19.9707C69.8672 18.2376 69.5736 16.9414 68.9863 16.082C68.4134 15.2083 67.5039 14.7715 66.2578 14.7715C64.582 14.7715 63.3646 15.3874 62.6055 16.6191C61.8464 17.8509 61.4668 19.8776 61.4668 22.6992V34H54.9141V9.98047H59.9199L60.8008 13.0527H61.166C61.8105 11.9499 62.7415 11.0905 63.959 10.4746C65.1764 9.8444 66.5729 9.5293 68.1484 9.5293C71.7435 9.5293 74.1784 10.7038 75.4531 13.0527H76.0332C76.6777 11.9355 77.623 11.069 78.8691 10.4531C80.1296 9.83724 81.5475 9.5293 83.123 9.5293C85.8444 9.5293 87.8997 10.2311 89.2891 11.6348C90.6927 13.0241 91.3945 15.2585 91.3945 18.3379V34H84.8203V19.9707C84.8203 18.2376 84.5267 16.9414 83.9395 16.082C83.3665 15.2083 82.457 14.7715 81.2109 14.7715C79.6068 14.7715 78.4036 15.3444 77.6016 16.4902C76.8138 17.6361 76.4199 19.4551 76.4199 21.9473V34ZM115.156 34L114.275 30.9277H113.932C113.23 32.0449 112.234 32.9115 110.945 33.5273C109.656 34.1289 108.188 34.4297 106.541 34.4297C103.719 34.4297 101.592 33.6777 100.16 32.1738C98.7279 30.6556 98.0117 28.4785 98.0117 25.6426V9.98047H104.564V24.0098C104.564 25.7428 104.872 27.0462 105.488 27.9199C106.104 28.7793 107.085 29.209 108.432 29.209C110.265 29.209 111.59 28.6003 112.406 27.3828C113.223 26.151 113.631 24.1172 113.631 21.2812V9.98047H120.184V34H115.156ZM133.354 20.9375L136.211 17.2852L142.936 9.98047H150.326L140.787 20.4004L150.906 34H143.344L136.426 24.2676L133.611 26.5234V34H127.059V0.570312H133.611V15.4805L133.268 20.9375H133.354ZM169.598 34L168.33 30.7344H168.158C167.055 32.1237 165.917 33.0905 164.742 33.6348C163.582 34.1647 162.064 34.4297 160.188 34.4297C157.882 34.4297 156.062 33.7708 154.73 32.4531C153.413 31.1354 152.754 29.2591 152.754 26.8242C152.754 24.2747 153.642 22.3984 155.418 21.1953C157.208 19.9779 159.901 19.3047 163.496 19.1758L167.664 19.0469V17.9941C167.664 15.5592 166.418 14.3418 163.926 14.3418C162.007 14.3418 159.751 14.9219 157.158 16.082L154.988 11.6562C157.753 10.2096 160.818 9.48633 164.184 9.48633C167.406 9.48633 169.877 10.1882 171.596 11.5918C173.314 12.9954 174.174 15.1296 174.174 17.9941V34H169.598ZM167.664 22.8711L165.129 22.957C163.224 23.0143 161.806 23.3581 160.875 23.9883C159.944 24.6185 159.479 25.5781 159.479 26.8672C159.479 28.7148 160.538 29.6387 162.658 29.6387C164.176 29.6387 165.387 29.2018 166.289 28.3281C167.206 27.4544 167.664 26.2943 167.664 24.8477V22.8711ZM203.113 34H196.561V19.9707C196.561 18.2376 196.253 16.9414 195.637 16.082C195.021 15.2083 194.04 14.7715 192.693 14.7715C190.86 14.7715 189.535 15.3874 188.719 16.6191C187.902 17.8366 187.494 19.8633 187.494 22.6992V34H180.941V9.98047H185.947L186.828 13.0527H187.193C187.924 11.8926 188.926 11.0189 190.201 10.4316C191.49 9.83008 192.951 9.5293 194.584 9.5293C197.377 9.5293 199.497 10.2884 200.943 11.8066C202.39 13.3105 203.113 15.4876 203.113 18.3379V34ZM228.895 34.4297C226.073 34.4297 223.853 33.334 222.234 31.1426C220.63 28.9512 219.828 25.9147 219.828 22.0332C219.828 18.0944 220.645 15.0293 222.277 12.8379C223.924 10.6322 226.188 9.5293 229.066 9.5293C232.089 9.5293 234.395 10.7038 235.984 13.0527H236.199C235.87 11.2624 235.705 9.66536 235.705 8.26172V0.570312H242.279V34H237.252L235.984 30.8848H235.705C234.215 33.248 231.945 34.4297 228.895 34.4297ZM231.193 29.209C232.869 29.209 234.094 28.722 234.867 27.748C235.655 26.7741 236.085 25.1198 236.156 22.7852V22.0762C236.156 19.498 235.755 17.6504 234.953 16.5332C234.165 15.416 232.876 14.8574 231.086 14.8574C229.625 14.8574 228.486 15.4805 227.67 16.7266C226.868 17.9583 226.467 19.7559 226.467 22.1191C226.467 24.4824 226.875 26.2585 227.691 27.4473C228.508 28.6217 229.675 29.209 231.193 29.209ZM259.08 14.1914C257.691 14.1914 256.602 14.6354 255.814 15.5234C255.027 16.3971 254.576 17.6432 254.461 19.2617H263.656C263.628 17.6432 263.205 16.3971 262.389 15.5234C261.572 14.6354 260.469 14.1914 259.08 14.1914ZM260.004 34.4297C256.137 34.4297 253.115 33.3626 250.938 31.2285C248.76 29.0944 247.672 26.0723 247.672 22.1621C247.672 18.1374 248.674 15.0293 250.68 12.8379C252.699 10.6322 255.485 9.5293 259.037 9.5293C262.432 9.5293 265.074 10.4961 266.965 12.4297C268.855 14.3633 269.801 17.0345 269.801 20.4434V23.623H254.311C254.382 25.485 254.934 26.9388 255.965 27.9844C256.996 29.0299 258.443 29.5527 260.305 29.5527C261.751 29.5527 263.119 29.4023 264.408 29.1016C265.697 28.8008 267.044 28.321 268.447 27.6621V32.7324C267.301 33.3053 266.077 33.7279 264.773 34C263.47 34.2865 261.88 34.4297 260.004 34.4297ZM280.844 34L271.691 9.98047H278.545L283.186 23.666C283.701 25.3991 284.023 27.0391 284.152 28.5859H284.281C284.353 27.2109 284.675 25.571 285.248 23.666L289.867 9.98047H296.721L287.568 34H280.844ZM310.127 14.1914C308.738 14.1914 307.649 14.6354 306.861 15.5234C306.074 16.3971 305.622 17.6432 305.508 19.2617H314.703C314.674 17.6432 314.252 16.3971 313.436 15.5234C312.619 14.6354 311.516 14.1914 310.127 14.1914ZM311.051 34.4297C307.184 34.4297 304.161 33.3626 301.984 31.2285C299.807 29.0944 298.719 26.0723 298.719 22.1621C298.719 18.1374 299.721 15.0293 301.727 12.8379C303.746 10.6322 306.532 9.5293 310.084 9.5293C313.479 9.5293 316.121 10.4961 318.012 12.4297C319.902 14.3633 320.848 17.0345 320.848 20.4434V23.623H305.357C305.429 25.485 305.98 26.9388 307.012 27.9844C308.043 29.0299 309.49 29.5527 311.352 29.5527C312.798 29.5527 314.166 29.4023 315.455 29.1016C316.744 28.8008 318.09 28.321 319.494 27.6621V32.7324C318.348 33.3053 317.124 33.7279 315.82 34C314.517 34.2865 312.927 34.4297 311.051 34.4297ZM332.729 34H326.176V0.570312H332.729V34ZM344.846 21.9473C344.846 24.3249 345.232 26.1224 346.006 27.3398C346.794 28.5573 348.068 29.166 349.83 29.166C351.577 29.166 352.831 28.5645 353.59 27.3613C354.363 26.1439 354.75 24.3392 354.75 21.9473C354.75 19.5697 354.363 17.7865 353.59 16.5977C352.816 15.4089 351.549 14.8145 349.787 14.8145C348.04 14.8145 346.779 15.4089 346.006 16.5977C345.232 17.7721 344.846 19.5553 344.846 21.9473ZM361.453 21.9473C361.453 25.8574 360.422 28.9154 358.359 31.1211C356.297 33.3268 353.425 34.4297 349.744 34.4297C347.438 34.4297 345.404 33.9284 343.643 32.9258C341.881 31.9089 340.527 30.4551 339.582 28.5645C338.637 26.6738 338.164 24.4681 338.164 21.9473C338.164 18.0228 339.188 14.972 341.236 12.7949C343.285 10.6178 346.163 9.5293 349.873 9.5293C352.179 9.5293 354.213 10.0306 355.975 11.0332C357.736 12.0358 359.09 13.4753 360.035 15.3516C360.98 17.2279 361.453 19.4264 361.453 21.9473ZM380.059 34.4297C377.237 34.4297 375.024 33.4056 373.42 31.3574H373.076C373.305 33.3626 373.42 34.5228 373.42 34.8379V44.5703H366.867V9.98047H372.195L373.119 13.0957H373.42C374.952 10.7181 377.223 9.5293 380.23 9.5293C383.066 9.5293 385.286 10.625 386.891 12.8164C388.495 15.0078 389.297 18.0514 389.297 21.9473C389.297 24.5111 388.917 26.7383 388.158 28.6289C387.413 30.5195 386.346 31.959 384.957 32.9473C383.568 33.9355 381.935 34.4297 380.059 34.4297ZM378.125 14.7715C376.507 14.7715 375.325 15.2728 374.58 16.2754C373.835 17.2637 373.449 18.9036 373.42 21.1953V21.9043C373.42 24.4824 373.799 26.3301 374.559 27.4473C375.332 28.5645 376.549 29.123 378.211 29.123C381.147 29.123 382.615 26.7025 382.615 21.8613C382.615 19.498 382.25 17.7292 381.52 16.5547C380.803 15.3659 379.672 14.7715 378.125 14.7715ZM404.658 14.1914C403.269 14.1914 402.18 14.6354 401.393 15.5234C400.605 16.3971 400.154 17.6432 400.039 19.2617H409.234C409.206 17.6432 408.783 16.3971 407.967 15.5234C407.15 14.6354 406.048 14.1914 404.658 14.1914ZM405.582 34.4297C401.715 34.4297 398.693 33.3626 396.516 31.2285C394.339 29.0944 393.25 26.0723 393.25 22.1621C393.25 18.1374 394.253 15.0293 396.258 12.8379C398.277 10.6322 401.063 9.5293 404.615 9.5293C408.01 9.5293 410.652 10.4961 412.543 12.4297C414.434 14.3633 415.379 17.0345 415.379 20.4434V23.623H399.889C399.96 25.485 400.512 26.9388 401.543 27.9844C402.574 29.0299 404.021 29.5527 405.883 29.5527C407.329 29.5527 408.697 29.4023 409.986 29.1016C411.275 28.8008 412.622 28.321 414.025 27.6621V32.7324C412.88 33.3053 411.655 33.7279 410.352 34C409.048 34.2865 407.458 34.4297 405.582 34.4297ZM434.113 9.5293C435.001 9.5293 435.739 9.59375 436.326 9.72266L435.832 15.8672C435.302 15.724 434.658 15.6523 433.898 15.6523C431.807 15.6523 430.174 16.1895 429 17.2637C427.84 18.3379 427.26 19.8418 427.26 21.7754V34H420.707V9.98047H425.67L426.637 14.0195H426.959C427.704 12.6732 428.706 11.5918 429.967 10.7754C431.242 9.94466 432.624 9.5293 434.113 9.5293ZM16.8008 79.5293C19.6367 79.5293 21.8568 80.6393 23.4609 82.8594C25.0651 85.0651 25.8672 88.0944 25.8672 91.9473C25.8672 95.9147 25.0365 98.987 23.375 101.164C21.7279 103.341 19.4792 104.43 16.6289 104.43C13.8073 104.43 11.5944 103.406 9.99023 101.357H9.53906L8.44336 104H3.4375V70.5703H9.99023V78.3477C9.99023 79.3359 9.9043 80.9186 9.73242 83.0957H9.99023C11.5228 80.7181 13.793 79.5293 16.8008 79.5293ZM14.6953 84.7715C13.0768 84.7715 11.8952 85.2728 11.1504 86.2754C10.4056 87.2637 10.0189 88.9036 9.99023 91.1953V91.9043C9.99023 94.4824 10.3698 96.3301 11.1289 97.4473C11.9023 98.5645 13.1198 99.123 14.7812 99.123C16.1276 99.123 17.1947 98.5072 17.9824 97.2754C18.7845 96.0293 19.1855 94.2246 19.1855 91.8613C19.1855 89.498 18.7845 87.7292 17.9824 86.5547C17.1803 85.3659 16.0846 84.7715 14.6953 84.7715ZM41.2285 84.1914C39.8392 84.1914 38.7507 84.6354 37.9629 85.5234C37.1751 86.3971 36.724 87.6432 36.6094 89.2617H45.8047C45.776 87.6432 45.3535 86.3971 44.5371 85.5234C43.7207 84.6354 42.6178 84.1914 41.2285 84.1914ZM42.1523 104.43C38.2852 104.43 35.263 103.363 33.0859 101.229C30.9089 99.0944 29.8203 96.0723 29.8203 92.1621C29.8203 88.1374 30.8229 85.0293 32.8281 82.8379C34.8477 80.6322 37.6335 79.5293 41.1855 79.5293C44.5801 79.5293 47.2227 80.4961 49.1133 82.4297C51.0039 84.3633 51.9492 87.0345 51.9492 90.4434V93.623H36.459C36.5306 95.485 37.082 96.9388 38.1133 97.9844C39.1445 99.0299 40.5911 99.5527 42.4531 99.5527C43.8997 99.5527 45.2676 99.4023 46.5566 99.1016C47.8457 98.8008 49.1921 98.321 50.5957 97.6621V102.732C49.4499 103.305 48.2253 103.728 46.9219 104C45.6185 104.286 44.0286 104.43 42.1523 104.43ZM70.6836 79.5293C71.5716 79.5293 72.3092 79.5938 72.8965 79.7227L72.4023 85.8672C71.8724 85.724 71.2279 85.6523 70.4688 85.6523C68.3776 85.6523 66.7448 86.1895 65.5703 87.2637C64.4102 88.3379 63.8301 89.8418 63.8301 91.7754V104H57.2773V79.9805H62.2402L63.207 84.0195H63.5293C64.2741 82.6732 65.2767 81.5918 66.5371 80.7754C67.8118 79.9447 69.194 79.5293 70.6836 79.5293ZM90.6211 79.5293C93.457 79.5293 95.6771 80.6393 97.2812 82.8594C98.8854 85.0651 99.6875 88.0944 99.6875 91.9473C99.6875 95.9147 98.8568 98.987 97.1953 101.164C95.5482 103.341 93.2995 104.43 90.4492 104.43C87.6276 104.43 85.4147 103.406 83.8105 101.357H83.3594L82.2637 104H77.2578V70.5703H83.8105V78.3477C83.8105 79.3359 83.7246 80.9186 83.5527 83.0957H83.8105C85.3431 80.7181 87.6133 79.5293 90.6211 79.5293ZM88.5156 84.7715C86.8971 84.7715 85.7155 85.2728 84.9707 86.2754C84.2259 87.2637 83.8392 88.9036 83.8105 91.1953V91.9043C83.8105 94.4824 84.1901 96.3301 84.9492 97.4473C85.7227 98.5645 86.9401 99.123 88.6016 99.123C89.9479 99.123 91.015 98.5072 91.8027 97.2754C92.6048 96.0293 93.0059 94.2246 93.0059 91.8613C93.0059 89.498 92.6048 87.7292 91.8027 86.5547C91.0007 85.3659 89.9049 84.7715 88.5156 84.7715ZM120.355 104L119.088 100.734H118.916C117.813 102.124 116.674 103.09 115.5 103.635C114.34 104.165 112.822 104.43 110.945 104.43C108.639 104.43 106.82 103.771 105.488 102.453C104.171 101.135 103.512 99.2591 103.512 96.8242C103.512 94.2747 104.4 92.3984 106.176 91.1953C107.966 89.9779 110.659 89.3047 114.254 89.1758L118.422 89.0469V87.9941C118.422 85.5592 117.176 84.3418 114.684 84.3418C112.764 84.3418 110.508 84.9219 107.916 86.082L105.746 81.6562C108.51 80.2096 111.576 79.4863 114.941 79.4863C118.164 79.4863 120.635 80.1882 122.354 81.5918C124.072 82.9954 124.932 85.1296 124.932 87.9941V104H120.355ZM118.422 92.8711L115.887 92.957C113.982 93.0143 112.564 93.3581 111.633 93.9883C110.702 94.6185 110.236 95.5781 110.236 96.8672C110.236 98.7148 111.296 99.6387 113.416 99.6387C114.934 99.6387 116.145 99.2018 117.047 98.3281C117.964 97.4544 118.422 96.2943 118.422 94.8477V92.8711ZM137.994 90.9375L140.852 87.2852L147.576 79.9805H154.967L145.428 90.4004L155.547 104H147.984L141.066 94.2676L138.252 96.5234V104H131.699V70.5703H138.252V85.4805L137.908 90.9375H137.994ZM174.238 104L172.971 100.734H172.799C171.696 102.124 170.557 103.09 169.383 103.635C168.223 104.165 166.704 104.43 164.828 104.43C162.522 104.43 160.703 103.771 159.371 102.453C158.053 101.135 157.395 99.2591 157.395 96.8242C157.395 94.2747 158.283 92.3984 160.059 91.1953C161.849 89.9779 164.542 89.3047 168.137 89.1758L172.305 89.0469V87.9941C172.305 85.5592 171.059 84.3418 168.566 84.3418C166.647 84.3418 164.391 84.9219 161.799 86.082L159.629 81.6562C162.393 80.2096 165.458 79.4863 168.824 79.4863C172.047 79.4863 174.518 80.1882 176.236 81.5918C177.955 82.9954 178.814 85.1296 178.814 87.9941V104H174.238ZM172.305 92.8711L169.77 92.957C167.865 93.0143 166.447 93.3581 165.516 93.9883C164.585 94.6185 164.119 95.5781 164.119 96.8672C164.119 98.7148 165.179 99.6387 167.299 99.6387C168.817 99.6387 170.027 99.2018 170.93 98.3281C171.846 97.4544 172.305 96.2943 172.305 94.8477V92.8711ZM195.701 99.209C196.847 99.209 198.222 98.9583 199.826 98.457V103.334C198.193 104.064 196.188 104.43 193.811 104.43C191.189 104.43 189.277 103.771 188.074 102.453C186.885 101.121 186.291 99.1302 186.291 96.4805V84.9004H183.154V82.1289L186.764 79.9375L188.654 74.8672H192.844V79.9805H199.568V84.9004H192.844V96.4805C192.844 97.4115 193.102 98.099 193.617 98.543C194.147 98.987 194.842 99.209 195.701 99.209ZM245.695 104H237.596L235.125 101.572C232.389 103.477 229.296 104.43 225.844 104.43C222.349 104.43 219.577 103.628 217.529 102.023C215.481 100.419 214.457 98.2493 214.457 95.5137C214.457 93.5514 214.887 91.8828 215.746 90.5078C216.62 89.1185 218.109 87.8223 220.215 86.6191C219.141 85.3874 218.36 84.2129 217.873 83.0957C217.386 81.9642 217.143 80.7324 217.143 79.4004C217.143 77.2233 217.973 75.4688 219.635 74.1367C221.311 72.8047 223.545 72.1387 226.338 72.1387C229.002 72.1387 231.129 72.7617 232.719 74.0078C234.323 75.2396 235.125 76.8939 235.125 78.9707C235.125 80.6751 234.631 82.2363 233.643 83.6543C232.654 85.0579 231.057 86.3971 228.852 87.6719L234.953 93.623C235.97 91.9473 236.851 89.7917 237.596 87.1562H244.428C243.912 89.0898 243.203 90.9805 242.301 92.8281C241.398 94.6615 240.374 96.2871 239.229 97.7051L245.695 104ZM221.354 94.8906C221.354 96.1224 221.812 97.1035 222.729 97.834C223.66 98.5645 224.848 98.9297 226.295 98.9297C228.1 98.9297 229.725 98.4928 231.172 97.6191L224.039 90.5293C223.208 91.1595 222.549 91.8184 222.062 92.5059C221.59 93.1934 221.354 93.9883 221.354 94.8906ZM229.066 79.6582C229.066 78.8991 228.809 78.3047 228.293 77.875C227.777 77.431 227.111 77.209 226.295 77.209C225.335 77.209 224.576 77.4382 224.018 77.8965C223.473 78.3548 223.201 79.0065 223.201 79.8516C223.201 81.112 223.882 82.5013 225.242 84.0195C226.474 83.332 227.419 82.6589 228.078 82C228.737 81.3268 229.066 80.5462 229.066 79.6582ZM270.682 99.209C271.827 99.209 273.202 98.9583 274.807 98.457V103.334C273.174 104.064 271.169 104.43 268.791 104.43C266.17 104.43 264.258 103.771 263.055 102.453C261.866 101.121 261.271 99.1302 261.271 96.4805V84.9004H258.135V82.1289L261.744 79.9375L263.635 74.8672H267.824V79.9805H274.549V84.9004H267.824V96.4805C267.824 97.4115 268.082 98.099 268.598 98.543C269.128 98.987 269.822 99.209 270.682 99.209ZM289.631 84.1914C288.242 84.1914 287.153 84.6354 286.365 85.5234C285.577 86.3971 285.126 87.6432 285.012 89.2617H294.207C294.178 87.6432 293.756 86.3971 292.939 85.5234C292.123 84.6354 291.02 84.1914 289.631 84.1914ZM290.555 104.43C286.688 104.43 283.665 103.363 281.488 101.229C279.311 99.0944 278.223 96.0723 278.223 92.1621C278.223 88.1374 279.225 85.0293 281.23 82.8379C283.25 80.6322 286.036 79.5293 289.588 79.5293C292.982 79.5293 295.625 80.4961 297.516 82.4297C299.406 84.3633 300.352 87.0345 300.352 90.4434V93.623H284.861C284.933 95.485 285.484 96.9388 286.516 97.9844C287.547 99.0299 288.993 99.5527 290.855 99.5527C292.302 99.5527 293.67 99.4023 294.959 99.1016C296.248 98.8008 297.594 98.321 298.998 97.6621V102.732C297.852 103.305 296.628 103.728 295.324 104C294.021 104.286 292.431 104.43 290.555 104.43ZM319.086 79.5293C319.974 79.5293 320.712 79.5938 321.299 79.7227L320.805 85.8672C320.275 85.724 319.63 85.6523 318.871 85.6523C316.78 85.6523 315.147 86.1895 313.973 87.2637C312.812 88.3379 312.232 89.8418 312.232 91.7754V104H305.68V79.9805H310.643L311.609 84.0195H311.932C312.676 82.6732 313.679 81.5918 314.939 80.7754C316.214 79.9447 317.596 79.5293 319.086 79.5293ZM339.023 79.5293C341.859 79.5293 344.079 80.6393 345.684 82.8594C347.288 85.0651 348.09 88.0944 348.09 91.9473C348.09 95.9147 347.259 98.987 345.598 101.164C343.951 103.341 341.702 104.43 338.852 104.43C336.03 104.43 333.817 103.406 332.213 101.357H331.762L330.666 104H325.66V70.5703H332.213V78.3477C332.213 79.3359 332.127 80.9186 331.955 83.0957H332.213C333.745 80.7181 336.016 79.5293 339.023 79.5293ZM336.918 84.7715C335.299 84.7715 334.118 85.2728 333.373 86.2754C332.628 87.2637 332.242 88.9036 332.213 91.1953V91.9043C332.213 94.4824 332.592 96.3301 333.352 97.4473C334.125 98.5645 335.342 99.123 337.004 99.123C338.35 99.123 339.417 98.5072 340.205 97.2754C341.007 96.0293 341.408 94.2246 341.408 91.8613C341.408 89.498 341.007 87.7292 340.205 86.5547C339.403 85.3659 338.307 84.7715 336.918 84.7715ZM368.758 104L367.49 100.734H367.318C366.215 102.124 365.077 103.09 363.902 103.635C362.742 104.165 361.224 104.43 359.348 104.43C357.042 104.43 355.223 103.771 353.891 102.453C352.573 101.135 351.914 99.2591 351.914 96.8242C351.914 94.2747 352.802 92.3984 354.578 91.1953C356.368 89.9779 359.061 89.3047 362.656 89.1758L366.824 89.0469V87.9941C366.824 85.5592 365.578 84.3418 363.086 84.3418C361.167 84.3418 358.911 84.9219 356.318 86.082L354.148 81.6562C356.913 80.2096 359.978 79.4863 363.344 79.4863C366.566 79.4863 369.037 80.1882 370.756 81.5918C372.475 82.9954 373.334 85.1296 373.334 87.9941V104H368.758ZM366.824 92.8711L364.289 92.957C362.384 93.0143 360.966 93.3581 360.035 93.9883C359.104 94.6185 358.639 95.5781 358.639 96.8672C358.639 98.7148 359.699 99.6387 361.818 99.6387C363.337 99.6387 364.547 99.2018 365.449 98.3281C366.366 97.4544 366.824 96.2943 366.824 94.8477V92.8711ZM379.822 73.7715C379.822 71.6374 381.011 70.5703 383.389 70.5703C385.766 70.5703 386.955 71.6374 386.955 73.7715C386.955 74.7884 386.654 75.5833 386.053 76.1562C385.465 76.7148 384.577 76.9941 383.389 76.9941C381.011 76.9941 379.822 75.9199 379.822 73.7715ZM386.654 104H380.102V79.9805H386.654V104ZM399.846 90.9375L402.703 87.2852L409.428 79.9805H416.818L407.279 90.4004L417.398 104H409.836L402.918 94.2676L400.104 96.5234V104H393.551V70.5703H400.104V85.4805L399.76 90.9375H399.846ZM11.043 174.43C8.22135 174.43 6.0013 173.334 4.38281 171.143C2.77865 168.951 1.97656 165.915 1.97656 162.033C1.97656 158.094 2.79297 155.029 4.42578 152.838C6.07292 150.632 8.33594 149.529 11.2148 149.529C14.237 149.529 16.543 150.704 18.1328 153.053H18.3477C18.0182 151.262 17.8535 149.665 17.8535 148.262V140.57H24.4277V174H19.4004L18.1328 170.885H17.8535C16.3639 173.248 14.0938 174.43 11.043 174.43ZM13.3418 169.209C15.0176 169.209 16.2422 168.722 17.0156 167.748C17.8034 166.774 18.2331 165.12 18.3047 162.785V162.076C18.3047 159.498 17.9036 157.65 17.1016 156.533C16.3138 155.416 15.0247 154.857 13.2344 154.857C11.7734 154.857 10.6348 155.48 9.81836 156.727C9.01628 157.958 8.61523 159.756 8.61523 162.119C8.61523 164.482 9.02344 166.258 9.83984 167.447C10.6562 168.622 11.8236 169.209 13.3418 169.209ZM31.002 143.771C31.002 141.637 32.1908 140.57 34.5684 140.57C36.946 140.57 38.1348 141.637 38.1348 143.771C38.1348 144.788 37.834 145.583 37.2324 146.156C36.6452 146.715 35.7572 146.994 34.5684 146.994C32.1908 146.994 31.002 145.92 31.002 143.771ZM37.834 174H31.2812V149.98H37.834V174ZM69.5234 149.529C72.3594 149.529 74.5794 150.639 76.1836 152.859C77.7878 155.065 78.5898 158.094 78.5898 161.947C78.5898 165.915 77.7591 168.987 76.0977 171.164C74.4505 173.341 72.2018 174.43 69.3516 174.43C66.5299 174.43 64.3171 173.406 62.7129 171.357H62.2617L61.166 174H56.1602V140.57H62.7129V148.348C62.7129 149.336 62.627 150.919 62.4551 153.096H62.7129C64.2454 150.718 66.5156 149.529 69.5234 149.529ZM67.418 154.771C65.7995 154.771 64.6178 155.273 63.873 156.275C63.1283 157.264 62.7415 158.904 62.7129 161.195V161.904C62.7129 164.482 63.0924 166.33 63.8516 167.447C64.625 168.564 65.8424 169.123 67.5039 169.123C68.8503 169.123 69.9173 168.507 70.7051 167.275C71.5072 166.029 71.9082 164.225 71.9082 161.861C71.9082 159.498 71.5072 157.729 70.7051 156.555C69.903 155.366 68.8073 154.771 67.418 154.771ZM93.9512 154.191C92.5618 154.191 91.4733 154.635 90.6855 155.523C89.8978 156.397 89.4466 157.643 89.332 159.262H98.5273C98.4987 157.643 98.0762 156.397 97.2598 155.523C96.4434 154.635 95.3405 154.191 93.9512 154.191ZM94.875 174.43C91.0078 174.43 87.9857 173.363 85.8086 171.229C83.6315 169.094 82.543 166.072 82.543 162.162C82.543 158.137 83.5456 155.029 85.5508 152.838C87.5703 150.632 90.3561 149.529 93.9082 149.529C97.3027 149.529 99.9453 150.496 101.836 152.43C103.727 154.363 104.672 157.035 104.672 160.443V163.623H89.1816C89.2533 165.485 89.8047 166.939 90.8359 167.984C91.8672 169.03 93.3138 169.553 95.1758 169.553C96.6224 169.553 97.9902 169.402 99.2793 169.102C100.568 168.801 101.915 168.321 103.318 167.662V172.732C102.173 173.305 100.948 173.728 99.6445 174C98.3411 174.286 96.7513 174.43 94.875 174.43ZM123.406 149.529C124.294 149.529 125.032 149.594 125.619 149.723L125.125 155.867C124.595 155.724 123.951 155.652 123.191 155.652C121.1 155.652 119.467 156.189 118.293 157.264C117.133 158.338 116.553 159.842 116.553 161.775V174H110V149.98H114.963L115.93 154.02H116.252C116.997 152.673 117.999 151.592 119.26 150.775C120.535 149.945 121.917 149.529 123.406 149.529ZM143.344 149.529C146.18 149.529 148.4 150.639 150.004 152.859C151.608 155.065 152.41 158.094 152.41 161.947C152.41 165.915 151.579 168.987 149.918 171.164C148.271 173.341 146.022 174.43 143.172 174.43C140.35 174.43 138.137 173.406 136.533 171.357H136.082L134.986 174H129.98V140.57H136.533V148.348C136.533 149.336 136.447 150.919 136.275 153.096H136.533C138.066 150.718 140.336 149.529 143.344 149.529ZM141.238 154.771C139.62 154.771 138.438 155.273 137.693 156.275C136.949 157.264 136.562 158.904 136.533 161.195V161.904C136.533 164.482 136.913 166.33 137.672 167.447C138.445 168.564 139.663 169.123 141.324 169.123C142.671 169.123 143.738 168.507 144.525 167.275C145.327 166.029 145.729 164.225 145.729 161.861C145.729 159.498 145.327 157.729 144.525 156.555C143.723 155.366 142.628 154.771 141.238 154.771ZM173.078 174L171.811 170.734H171.639C170.536 172.124 169.397 173.09 168.223 173.635C167.062 174.165 165.544 174.43 163.668 174.43C161.362 174.43 159.543 173.771 158.211 172.453C156.893 171.135 156.234 169.259 156.234 166.824C156.234 164.275 157.122 162.398 158.898 161.195C160.689 159.978 163.382 159.305 166.977 159.176L171.145 159.047V157.994C171.145 155.559 169.898 154.342 167.406 154.342C165.487 154.342 163.231 154.922 160.639 156.082L158.469 151.656C161.233 150.21 164.298 149.486 167.664 149.486C170.887 149.486 173.357 150.188 175.076 151.592C176.795 152.995 177.654 155.13 177.654 157.994V174H173.078ZM171.145 162.871L168.609 162.957C166.704 163.014 165.286 163.358 164.355 163.988C163.424 164.618 162.959 165.578 162.959 166.867C162.959 168.715 164.019 169.639 166.139 169.639C167.657 169.639 168.867 169.202 169.77 168.328C170.686 167.454 171.145 166.294 171.145 164.848V162.871ZM205.326 149.98V153.311L201.566 154.277C202.254 155.352 202.598 156.555 202.598 157.887C202.598 160.465 201.695 162.477 199.891 163.924C198.1 165.356 195.608 166.072 192.414 166.072L191.232 166.008L190.266 165.9C189.592 166.416 189.256 166.989 189.256 167.619C189.256 168.564 190.459 169.037 192.865 169.037H196.947C199.583 169.037 201.588 169.603 202.963 170.734C204.352 171.866 205.047 173.527 205.047 175.719C205.047 178.526 203.872 180.703 201.523 182.25C199.189 183.797 195.83 184.57 191.447 184.57C188.096 184.57 185.532 183.983 183.756 182.809C181.994 181.648 181.113 180.016 181.113 177.91C181.113 176.464 181.564 175.253 182.467 174.279C183.369 173.305 184.694 172.611 186.441 172.195C185.768 171.909 185.181 171.443 184.68 170.799C184.178 170.14 183.928 169.445 183.928 168.715C183.928 167.798 184.193 167.039 184.723 166.438C185.253 165.822 186.019 165.22 187.021 164.633C185.761 164.089 184.758 163.215 184.014 162.012C183.283 160.809 182.918 159.391 182.918 157.758C182.918 155.137 183.77 153.11 185.475 151.678C187.179 150.245 189.614 149.529 192.779 149.529C193.452 149.529 194.247 149.594 195.164 149.723C196.095 149.837 196.689 149.923 196.947 149.98H205.326ZM186.785 177.395C186.785 178.297 187.215 179.006 188.074 179.521C188.948 180.037 190.165 180.295 191.727 180.295C194.076 180.295 195.916 179.973 197.248 179.328C198.58 178.684 199.246 177.803 199.246 176.686C199.246 175.783 198.852 175.16 198.064 174.816C197.277 174.473 196.059 174.301 194.412 174.301H191.018C189.814 174.301 188.805 174.58 187.988 175.139C187.186 175.712 186.785 176.464 186.785 177.395ZM189.17 157.844C189.17 159.147 189.464 160.178 190.051 160.938C190.652 161.697 191.562 162.076 192.779 162.076C194.011 162.076 194.913 161.697 195.486 160.938C196.059 160.178 196.346 159.147 196.346 157.844C196.346 154.951 195.157 153.504 192.779 153.504C190.373 153.504 189.17 154.951 189.17 157.844ZM224.555 174L223.287 170.734H223.115C222.012 172.124 220.874 173.09 219.699 173.635C218.539 174.165 217.021 174.43 215.145 174.43C212.839 174.43 211.02 173.771 209.688 172.453C208.37 171.135 207.711 169.259 207.711 166.824C207.711 164.275 208.599 162.398 210.375 161.195C212.165 159.978 214.858 159.305 218.453 159.176L222.621 159.047V157.994C222.621 155.559 221.375 154.342 218.883 154.342C216.964 154.342 214.708 154.922 212.115 156.082L209.945 151.656C212.71 150.21 215.775 149.486 219.141 149.486C222.363 149.486 224.834 150.188 226.553 151.592C228.271 152.995 229.131 155.13 229.131 157.994V174H224.555ZM222.621 162.871L220.086 162.957C218.181 163.014 216.763 163.358 215.832 163.988C214.901 164.618 214.436 165.578 214.436 166.867C214.436 168.715 215.495 169.639 217.615 169.639C219.133 169.639 220.344 169.202 221.246 168.328C222.163 167.454 222.621 166.294 222.621 164.848V162.871ZM235.619 143.771C235.619 141.637 236.808 140.57 239.186 140.57C241.563 140.57 242.752 141.637 242.752 143.771C242.752 144.788 242.451 145.583 241.85 146.156C241.262 146.715 240.374 146.994 239.186 146.994C236.808 146.994 235.619 145.92 235.619 143.771ZM242.451 174H235.898V149.98H242.451V174ZM274.141 149.529C276.977 149.529 279.197 150.639 280.801 152.859C282.405 155.065 283.207 158.094 283.207 161.947C283.207 165.915 282.376 168.987 280.715 171.164C279.068 173.341 276.819 174.43 273.969 174.43C271.147 174.43 268.934 173.406 267.33 171.357H266.879L265.783 174H260.777V140.57H267.33V148.348C267.33 149.336 267.244 150.919 267.072 153.096H267.33C268.863 150.718 271.133 149.529 274.141 149.529ZM272.035 154.771C270.417 154.771 269.235 155.273 268.49 156.275C267.745 157.264 267.359 158.904 267.33 161.195V161.904C267.33 164.482 267.71 166.33 268.469 167.447C269.242 168.564 270.46 169.123 272.121 169.123C273.467 169.123 274.535 168.507 275.322 167.275C276.124 166.029 276.525 164.225 276.525 161.861C276.525 159.498 276.124 157.729 275.322 156.555C274.52 155.366 273.424 154.771 272.035 154.771ZM288.342 143.771C288.342 141.637 289.531 140.57 291.908 140.57C294.286 140.57 295.475 141.637 295.475 143.771C295.475 144.788 295.174 145.583 294.572 146.156C293.985 146.715 293.097 146.994 291.908 146.994C289.531 146.994 288.342 145.92 288.342 143.771ZM295.174 174H288.621V149.98H295.174V174ZM309.676 174.43C306.854 174.43 304.634 173.334 303.016 171.143C301.411 168.951 300.609 165.915 300.609 162.033C300.609 158.094 301.426 155.029 303.059 152.838C304.706 150.632 306.969 149.529 309.848 149.529C312.87 149.529 315.176 150.704 316.766 153.053H316.98C316.651 151.262 316.486 149.665 316.486 148.262V140.57H323.061V174H318.033L316.766 170.885H316.486C314.997 173.248 312.727 174.43 309.676 174.43ZM311.975 169.209C313.65 169.209 314.875 168.722 315.648 167.748C316.436 166.774 316.866 165.12 316.938 162.785V162.076C316.938 159.498 316.536 157.65 315.734 156.533C314.947 155.416 313.658 154.857 311.867 154.857C310.406 154.857 309.268 155.48 308.451 156.727C307.649 157.958 307.248 159.756 307.248 162.119C307.248 164.482 307.656 166.258 308.473 167.447C309.289 168.622 310.456 169.209 311.975 169.209ZM345.168 174L343.9 170.734H343.729C342.626 172.124 341.487 173.09 340.312 173.635C339.152 174.165 337.634 174.43 335.758 174.43C333.452 174.43 331.633 173.771 330.301 172.453C328.983 171.135 328.324 169.259 328.324 166.824C328.324 164.275 329.212 162.398 330.988 161.195C332.779 159.978 335.471 159.305 339.066 159.176L343.234 159.047V157.994C343.234 155.559 341.988 154.342 339.496 154.342C337.577 154.342 335.321 154.922 332.729 156.082L330.559 151.656C333.323 150.21 336.388 149.486 339.754 149.486C342.977 149.486 345.447 150.188 347.166 151.592C348.885 152.995 349.744 155.13 349.744 157.994V174H345.168ZM343.234 162.871L340.699 162.957C338.794 163.014 337.376 163.358 336.445 163.988C335.514 164.618 335.049 165.578 335.049 166.867C335.049 168.715 336.109 169.639 338.229 169.639C339.747 169.639 340.957 169.202 341.859 168.328C342.776 167.454 343.234 166.294 343.234 164.848V162.871ZM378.684 174H372.131V159.971C372.131 158.238 371.823 156.941 371.207 156.082C370.591 155.208 369.61 154.771 368.264 154.771C366.43 154.771 365.105 155.387 364.289 156.619C363.473 157.837 363.064 159.863 363.064 162.699V174H356.512V149.98H361.518L362.398 153.053H362.764C363.494 151.893 364.497 151.019 365.771 150.432C367.061 149.83 368.521 149.529 370.154 149.529C372.947 149.529 375.067 150.288 376.514 151.807C377.96 153.311 378.684 155.488 378.684 158.338V174ZM406.334 149.98V153.311L402.574 154.277C403.262 155.352 403.605 156.555 403.605 157.887C403.605 160.465 402.703 162.477 400.898 163.924C399.108 165.356 396.616 166.072 393.422 166.072L392.24 166.008L391.273 165.9C390.6 166.416 390.264 166.989 390.264 167.619C390.264 168.564 391.467 169.037 393.873 169.037H397.955C400.59 169.037 402.596 169.603 403.971 170.734C405.36 171.866 406.055 173.527 406.055 175.719C406.055 178.526 404.88 180.703 402.531 182.25C400.197 183.797 396.838 184.57 392.455 184.57C389.104 184.57 386.54 183.983 384.764 182.809C383.002 181.648 382.121 180.016 382.121 177.91C382.121 176.464 382.572 175.253 383.475 174.279C384.377 173.305 385.702 172.611 387.449 172.195C386.776 171.909 386.189 171.443 385.688 170.799C385.186 170.14 384.936 169.445 384.936 168.715C384.936 167.798 385.201 167.039 385.73 166.438C386.26 165.822 387.027 165.22 388.029 164.633C386.769 164.089 385.766 163.215 385.021 162.012C384.291 160.809 383.926 159.391 383.926 157.758C383.926 155.137 384.778 153.11 386.482 151.678C388.187 150.245 390.622 149.529 393.787 149.529C394.46 149.529 395.255 149.594 396.172 149.723C397.103 149.837 397.697 149.923 397.955 149.98H406.334ZM387.793 177.395C387.793 178.297 388.223 179.006 389.082 179.521C389.956 180.037 391.173 180.295 392.734 180.295C395.083 180.295 396.924 179.973 398.256 179.328C399.588 178.684 400.254 177.803 400.254 176.686C400.254 175.783 399.86 175.16 399.072 174.816C398.285 174.473 397.067 174.301 395.42 174.301H392.025C390.822 174.301 389.812 174.58 388.996 175.139C388.194 175.712 387.793 176.464 387.793 177.395ZM390.178 157.844C390.178 159.147 390.471 160.178 391.059 160.938C391.66 161.697 392.57 162.076 393.787 162.076C395.019 162.076 395.921 161.697 396.494 160.938C397.067 160.178 397.354 159.147 397.354 157.844C397.354 154.951 396.165 153.504 393.787 153.504C391.381 153.504 390.178 154.951 390.178 157.844ZM9.73242 230.938L12.5898 227.285L19.3145 219.98H26.7051L17.166 230.4L27.2852 244H19.7227L12.8047 234.268L9.99023 236.523V244H3.4375V210.57H9.99023V225.48L9.64648 230.938H9.73242ZM40.6699 224.191C39.2806 224.191 38.1921 224.635 37.4043 225.523C36.6165 226.397 36.1654 227.643 36.0508 229.262H45.2461C45.2174 227.643 44.7949 226.397 43.9785 225.523C43.1621 224.635 42.0592 224.191 40.6699 224.191ZM41.5938 244.43C37.7266 244.43 34.7044 243.363 32.5273 241.229C30.3503 239.094 29.2617 236.072 29.2617 232.162C29.2617 228.137 30.2643 225.029 32.2695 222.838C34.2891 220.632 37.0749 219.529 40.627 219.529C44.0215 219.529 46.6641 220.496 48.5547 222.43C50.4453 224.363 51.3906 227.035 51.3906 230.443V233.623H35.9004C35.972 235.485 36.5234 236.939 37.5547 237.984C38.5859 239.03 40.0326 239.553 41.8945 239.553C43.3411 239.553 44.709 239.402 45.998 239.102C47.2871 238.801 48.6335 238.321 50.0371 237.662V242.732C48.8913 243.305 47.6667 243.728 46.3633 244C45.0599 244.286 43.4701 244.43 41.5938 244.43ZM71.9727 244L70.7051 240.734H70.5332C69.4303 242.124 68.2917 243.09 67.1172 243.635C65.957 244.165 64.4388 244.43 62.5625 244.43C60.2565 244.43 58.4375 243.771 57.1055 242.453C55.7878 241.135 55.1289 239.259 55.1289 236.824C55.1289 234.275 56.0169 232.398 57.793 231.195C59.5833 229.978 62.276 229.305 65.8711 229.176L70.0391 229.047V227.994C70.0391 225.559 68.793 224.342 66.3008 224.342C64.3815 224.342 62.1257 224.922 59.5332 226.082L57.3633 221.656C60.1276 220.21 63.1927 219.486 66.5586 219.486C69.7812 219.486 72.252 220.188 73.9707 221.592C75.6895 222.995 76.5488 225.13 76.5488 227.994V244H71.9727ZM70.0391 232.871L67.5039 232.957C65.599 233.014 64.181 233.358 63.25 233.988C62.319 234.618 61.8535 235.578 61.8535 236.867C61.8535 238.715 62.9134 239.639 65.0332 239.639C66.5514 239.639 67.7617 239.202 68.6641 238.328C69.5807 237.454 70.0391 236.294 70.0391 234.848V232.871ZM105.488 244H98.9355V229.971C98.9355 226.505 97.6465 224.771 95.0684 224.771C93.235 224.771 91.9102 225.395 91.0938 226.641C90.2773 227.887 89.8691 229.906 89.8691 232.699V244H83.3164V210.57H89.8691V217.381C89.8691 217.911 89.819 219.157 89.7188 221.119L89.5684 223.053H89.9121C91.373 220.704 93.6934 219.529 96.873 219.529C99.6947 219.529 101.836 220.288 103.297 221.807C104.758 223.325 105.488 225.502 105.488 228.338V244ZM118.787 244H112.234V210.57H118.787V244ZM125.404 213.771C125.404 211.637 126.593 210.57 128.971 210.57C131.348 210.57 132.537 211.637 132.537 213.771C132.537 214.788 132.236 215.583 131.635 216.156C131.048 216.715 130.16 216.994 128.971 216.994C126.593 216.994 125.404 215.92 125.404 213.771ZM132.236 244H125.684V219.98H132.236V244ZM154.387 244L153.119 240.734H152.947C151.844 242.124 150.706 243.09 149.531 243.635C148.371 244.165 146.853 244.43 144.977 244.43C142.671 244.43 140.852 243.771 139.52 242.453C138.202 241.135 137.543 239.259 137.543 236.824C137.543 234.275 138.431 232.398 140.207 231.195C141.997 229.978 144.69 229.305 148.285 229.176L152.453 229.047V227.994C152.453 225.559 151.207 224.342 148.715 224.342C146.796 224.342 144.54 224.922 141.947 226.082L139.777 221.656C142.542 220.21 145.607 219.486 148.973 219.486C152.195 219.486 154.666 220.188 156.385 221.592C158.104 222.995 158.963 225.13 158.963 227.994V244H154.387ZM152.453 232.871L149.918 232.957C148.013 233.014 146.595 233.358 145.664 233.988C144.733 234.618 144.268 235.578 144.268 236.867C144.268 238.715 145.327 239.639 147.447 239.639C148.965 239.639 150.176 239.202 151.078 238.328C151.995 237.454 152.453 236.294 152.453 234.848V232.871ZM187.902 244H181.35V229.971C181.35 228.238 181.042 226.941 180.426 226.082C179.81 225.208 178.829 224.771 177.482 224.771C175.649 224.771 174.324 225.387 173.508 226.619C172.691 227.837 172.283 229.863 172.283 232.699V244H165.73V219.98H170.736L171.617 223.053H171.982C172.713 221.893 173.715 221.019 174.99 220.432C176.279 219.83 177.74 219.529 179.373 219.529C182.166 219.529 184.286 220.288 185.732 221.807C187.179 223.311 187.902 225.488 187.902 228.338V244Z" fill="white"/>
</svg>
